<svg xmlns="http://www.w3.org/2000/svg" viewBox="0 0 1505.86 1505.86"><defs><style>.cls-1,.cls-3{fill:#fff;}.cls-2{fill:#6a040f;}.cls-3{stroke:#fff;stroke-miterlimit:10;}</style></defs><g id="Layer_1" data-name="Layer 1"><path class="cls-1" d="M1831.07,758.4c.51,70.79-13,201.61-16.67,236.46-14.18,136.73-29.7,209.42-50,275.88-21.93,71.71-32.89,107.57-50,127.83-71.31,84.32-164.15,21.69-431.24,63.91-132.34,20.93-228.63,55.13-341.1,2.41a276.76,276.76,0,0,1-50-29.18C754.12,1333.71,755.76,1129,756.38,1051c1-132,37.81-231.08,64.42-300.89,45.08-118.25,65-106.8,141.54-264.37,95.88-197.41,89.26-266.15,181.32-351C1183.72,97.72,1232.19,53,1299,44,1533.4,12.15,1828.79,440.64,1831.07,758.4Z" transform="translate(-525.57 -38.23)"/><path class="cls-1" d="M1314.05,56.91c-.13.17-.25.45-.4.47s-.35-.2-.53-.32c.14-.17.25-.45.4-.47S1313.87,56.8,1314.05,56.91Z" transform="translate(-525.57 -38.23)"/><path class="cls-1" d="M1331,64.38l.51.33a3.47,3.47,0,0,1-.41.45s-.27-.12-.26-.16A3.32,3.32,0,0,1,1331,64.38Z" transform="translate(-525.57 -38.23)"/><path class="cls-1" d="M1259.6,83l-.47.38a3.81,3.81,0,0,1-.29-.52s.2-.2.25-.18A3.94,3.94,0,0,1,1259.6,83Z" transform="translate(-525.57 -38.23)"/><path d="M942,1464.89a754,754,0,0,0,721.73-26.71,32.62,32.62,0,0,1,.79-8.43c.93-4.68,2.24-9.4,1.46-14.29-.33-2.08-.54-4.17-.86-6.24a48.6,48.6,0,0,0-1.23-6.85,40.07,40.07,0,0,0-2.53-5.5c.33-2.45,1.27-4.62.7-6.25-1.21-3.46-.29-6.58.23-9.86.48-3,.63-5.8-1.1-8.63a7,7,0,0,1-.5-5,24.5,24.5,0,0,0,.17-11.64,65.76,65.76,0,0,0-4.78-15.23,23,23,0,0,1-1.75-4.1c-.4-1.59-.43-3.31,1.79-3.78,1.35-.28,1.75-1.09,1.73-2.41,0-4.7,0-9.39,0-14,3.24-1.46,3.45-1.78,2.92-5-.27-1.71-.71-3.4-1-5.11a5.27,5.27,0,0,1-.06-2.55c1.07-2.76-.18-5-1.77-6.85-2.27-2.6-2.16-5.41-1.77-8.4.5-3.89.72-7.84,1.59-11.65,1.33-5.75-1.07-11.62.89-17.3a1,1,0,0,0-.07-.73c-1.68-2.88-.51-6-.73-9.06a13.53,13.53,0,0,1,1.7-6.94c.91-1.7,1-2.92.13-4.43-1.15-1.91-.89-3.79-.67-6,.42-4.21,1.55-8.56-.59-12.78a9.63,9.63,0,0,1-.78-5c.24-2.86,1.2-5.65,1.39-8.5.44-6.39.61-12.79,2.1-19.06.34-1.44.8-2.85,1.11-4.3.73-3.32,2.12-4.51,5.37-5a20.44,20.44,0,0,0,8.05-2.41c2.19-1.31,4.89-1.85,7-3.69.5-.45,1.67-.11,2.53-.18,1.69-.14,3.37-.32,4.94-.46a10.52,10.52,0,0,0,.41-1.47c.27-3.21.42-6.4,3.1-8.83,1.15-1,.65-2.37-.52-3.17a13.21,13.21,0,0,0-3.3-1.64,4.11,4.11,0,0,1-2.71-2.73c-1.58-4-3.41-7.94-5.21-11.87a21,21,0,0,0-1.75-2.85c-1.14-1.73-2.32-3.43-3.69-5.46-1.93.24-3.37-1.1-4.67-2.93a47.9,47.9,0,0,0-3.49-3.79,38.66,38.66,0,0,1-3.5-4.19,6.62,6.62,0,0,0-3.62-3c-2.78-.89-3-1.1-2.82-3.93.19-2.34-.52-3.81-2.68-4.7a2.16,2.16,0,0,1-.87-.76c-.39-8.73.17-17-2.75-25,.85-1.54,2.59-2.93,1.78-5.42l-2.5.46c0-1-.32-2.08,0-2.63,2.23-3.25,1.22-6.39-.1-9.54s-3.08-5.95-1.58-9.46c.13-.3-.07-.73-.11-1.1-.27-2.31-.9-4.66-.72-6.94.29-3.74-.17-7.56,1-11.24a6,6,0,0,0,.07-2.54c-.56-3.63.52-5.7,4.06-6a26.86,26.86,0,0,0,8.85-2.41,11,11,0,0,1,2.91-.51c5.52-.82,11.08-1.42,16.54-2.52,7.41-1.5,14.76-3.27,22.08-5.15a126.67,126.67,0,0,0,12.75-4.05c5-1.87,9.8-4.23,14.8-6.07,7.09-2.61,14-5.37,20.26-9.83a93.5,93.5,0,0,1,12.61-7.15c10.28-5.19,18.57-12.78,26.07-21.33,3.14-3.57,3.52-7.53,1.47-11.77-.37-.78-.83-1.53-1.19-2.32-4.7-10.26-9.63-20.43-14-30.84-3.88-9.27-7.21-18.77-10.6-28.23a424.59,424.59,0,0,1-12.6-43.62c-1.93-8-4.06-15.86-6-23.81-.68-2.76-1.05-5.61-1.77-8.37-2.09-8.05-4.33-16.06-6.44-24.1-1.92-7.31-3.3-14.77-6.27-21.8a110.32,110.32,0,0,1-3.7-10.53c-3.75-12.23-7.51-24.45-11.08-36.73s-7.8-24.6-12.62-36.6a175.55,175.55,0,0,0-26.39-45.18c-2.18-2.7-4.75-5.09-6.87-7.84-2.87-3.73-5.45-7.69-8.2-11.52a44.68,44.68,0,0,0-22.17-16.84c-1.88-.64-3.71-1.41-5.55-2.18q-17-7.1-34-14.23c-5.37-2.26-10.79-4.44-16.07-6.9a93,93,0,0,0-19.29-6.71,50.61,50.61,0,0,1-11.79-4.39q-12.95-6.56-25.57-13.76c-4.61-2.63-8.89-5.86-13.33-8.79-2.57-1.7-5.15-3.39-7.77-5-1.88-1.17-3.94-2.08-5.72-3.37a49.5,49.5,0,0,0-13.21-6.69c-7.32-2.51-14.14-6-19.86-11.41a16.4,16.4,0,0,1-4.68-7.89c-1.1-4-.17-7.94.7-11.78.76-3.34.9-7.12,3.51-9.68,3.92-3.86,3.81-8.32,2.77-13.13-.53-2.42-.87-4.88-1.19-7.33-.38-2.95-.65-5.92-1-8.88-.51-4.78-2-9.47-.8-14.4a10.32,10.32,0,0,0-.4-4.78c-.7-2.62-2-5.09-2.53-7.72-2.38-11.15-4.67-22.31-5.58-33.71a8.1,8.1,0,0,1,.55-2c1.11,2.08,1.92,3.59,2.72,5.1l.76-.2c-.13-1.39-.25-2.79-.41-4.19-.23-2-.66-3.94-.7-5.92a5,5,0,0,1,7.29-4.58c1.18.53,2.45.85,3.92,1.34.27,2.44.56,5,.85,7.58.34,2.95.59,5.92,1.11,8.84.14.74,1.16,1.33,1.77,2,.52-.61,1.28-1.14,1.5-1.84,1.16-3.67,2.16-7.38,3.26-11.06a22.52,22.52,0,0,1,1.52-4.19,4.74,4.74,0,0,1,2.27-2.26,4.75,4.75,0,0,0,3.56-5.42c-.45-5.15,1.77-9.71,2.82-14.52.06-.29.5-.49.87-.82.44.22.86.45,1.3.64s1.08.45,1.57.65c1.73-2.28,2-3.53,1.5-6.69-.38-2.33-.94-4.63-1.19-7-.63-5.8-1.23-11.61-1.67-17.43a77.87,77.87,0,0,1-.07-8.91c.36-8.92.91-17.84,1.22-26.76.17-5-.07-9.93,0-14.89.06-2.72.27-5.34-.55-8.06-.44-1.47.29-3.34.67-5s1.52-3.26,1.46-4.86c-.33-8.05-.46-16.15-1.58-24.11-1.41-9.92-3.76-19.7-5.6-29.56-.38-2-.29-4.18-.47-6.27a40.64,40.64,0,0,0-.68-6.27c-1.42-5.91-3.15-11.74-4.59-17.65-3.26-13.29-7.32-26.19-14.31-38.17-7.77-13.3-16.12-26.22-24.83-38.9a77.4,77.4,0,0,0-9.89-11.58c-5.4-5.26-10.51-10.8-16.63-15.4S1408.2,80,1401.49,76c-3.72-2.23-7.14-4.94-10.76-7.33-7.21-4.77-15.3-7.64-23.39-10.43-4.55-1.57-9.29-2.64-14-3.86-2.49-.66-5-1.15-7.53-1.74a39.6,39.6,0,0,0-5-1.25,104.62,104.62,0,0,0-11.85-.78c-7.68.1-15.38.34-23,.88a101.15,101.15,0,0,0-13.13,2,63.24,63.24,0,0,0-11.44,3.06c-6.18,2.55-12.13,5.63-18.15,8.54a122.26,122.26,0,0,0-28.26,19.12c-1.38,1.23-2.91,2.28-4.35,3.43-4.84,3.87-9.9,7.51-14.46,11.68-5.77,5.28-11.17,11-16.65,16.54-2.86,2.92-5.93,5.76-8.23,9.1-6.35,9.19-12.67,18.42-16.77,28.93a39.86,39.86,0,0,1-2.79,5.68c-5.37,9-8.9,18.83-11.71,28.92-2.93,10.51-4.47,21.38-8.35,31.64a35.39,35.39,0,0,0-1.31,5.42c-2.93,14.22-5.88,28.43-8.71,42.67a89.85,89.85,0,0,0-1.68,11.75,50.8,50.8,0,0,0,2.91,20.15c2.77,7.86,2,16.2,3.51,24.22.06.34-.18.72-.22,1.09-.33,3.08-.77,6.15-.93,9.24-.38,7.53,1.81,14.76,2.68,22.15.75,6.28,1.08,12.59-.69,18.81-.85,3-1.83,5.95-2.38,9-1.79,10-3.43,20.06-5.1,30.1-2.28,13.62-6.61,26.46-14.3,38.05a26.64,26.64,0,0,0-1.57,3.27l4.64,3.21a29.12,29.12,0,0,0,3.07-1.18c3.32-1.6,6.87-2.76,9.48-5.67a56.63,56.63,0,0,1,6.26-5.72c.52-.43,1.52-.3,2.3-.43a9.47,9.47,0,0,1,.33,2.38,3.5,3.5,0,0,1-.94,1.57c-1.83,2.18-3.68,4.34-5.53,6.51a29.22,29.22,0,0,0-6,10.52c5.08.86,5.58,2.1,2.76,6-1,1.38-2.08,2.7-3.15,4.08,3.93,1.94,4,2.67,1.19,5.62l-2.86,3c4.17,1.85,4.17,1.85,2.65,5.19.08.09.14.22.24.27,1,.44,2.49.72,2.11,2.1-.23.81-1.4,1.49-2.28,2a27.33,27.33,0,0,1-2.82.91c-1.47.58-2.16,1.57-1.33,3.31a35.45,35.45,0,0,1,4.37.05,9.6,9.6,0,0,1,2.5,1.13c-.5.75-.84,1.88-1.54,2.18a22.08,22.08,0,0,1-6.32,2c-2.89.29-4.67,1.33-5,4.37.57,1.05,2.54,1.59,1.45,3.32s-2.58,1-4,.44c-2.43-.93-4.81-2-7.3-2.77a15.21,15.21,0,0,0-5.1-.63,4.07,4.07,0,0,0-2.71,1.55c-2.15,2.95-1.23,5.7,2.28,7.06,7.63,3,15.29,5.82,22.92,8.76,6.59,2.53,7.36,5.1,3.29,10.84-2.77,3.91-6.67,6.24-11.08,7.82-5.6,2-11.21,4-16.83,6q-26.34,9.27-53.23,16.83c-3.94,1.1-7.78,2.61-11.77,3.51-16.35,3.67-32.42,8.35-48.39,13.42a260.33,260.33,0,0,0-45.72,19.77c-9.95,5.4-19.58,11.24-27.61,19.44-3.11,3.17-6.89,5.69-10.08,8.79a52.34,52.34,0,0,0-8.1,9.15c-5,7.95-9.67,16.18-14.34,24.37-7.88,13.8-16.13,27.42-23.36,41.55-6.95,13.58-13.14,27.58-19,41.65C844.35,762,840,773.88,836,785.89c-5,15.21-8.33,30.9-11.57,46.58-1.93,9.36-3.87,18.71-5.92,28-3.64,16.62-8.3,33-13.24,49.25-2.85,9.37-5.54,18.79-8.26,28.2-1.83,6.32-3.55,12.67-5.39,19q-4.8,16.44-9.68,32.85c-.39,1.31-.8,2.61-1.28,3.88-4.08,10.8-8.35,21.52-12.22,32.39-2.39,6.71-1.12,9.84,5.46,14a89.68,89.68,0,0,0,20.36,9.09c3.07,1,6.07,2.2,9.09,3.33a9.51,9.51,0,0,1,6.63,9c.06,1,.19,2,.22,3,.16,5,.26,9.91.46,14.86.37,9.43.65,18.87,1.24,28.28q1,16.92,2.61,33.79c.65,7,2.08,14,2.65,21,.59,7.29.78,14.64.75,22,0,8,.7,16.13-1.38,24.07a43,43,0,0,0-.88,7c-.11,1.29-.38,2.73,1.4,3.86l5.23-7.15c1.13,3.85,2.07,7.08,3.07,10.5a16,16,0,0,0,1.46-1.92,16.56,16.56,0,0,0,1-1.75,16.2,16.2,0,0,0,1.37-4.8c.88-6.63-1.06-10.65-.24-17.79a60.43,60.43,0,0,0-.14-8.5,3.75,3.75,0,0,0-.21-1.47c-1.72-3.48-1.49-7.16-1.41-10.91.12-5.54-.32-11.1.65-16.6.36-2,.91-4,1.49-6.47a9.17,9.17,0,0,1-.18-10.3,3,3,0,0,0,.27-1.75c-.23-2.57-.65-5.13-.74-7.71a3.17,3.17,0,0,1,1.24-2.34c1-.61,2.61-.26,2.75-2a27.34,27.34,0,0,0,0-3.62c-.15-3-1.5-6-.17-9.23a11.79,11.79,0,0,1,2.6,0,6.08,6.08,0,0,0,6.32-1.72,16.52,16.52,0,0,1,8.41-4.49,9.5,9.5,0,0,0,6.66-4.37,3.15,3.15,0,0,1,3.32-1.8,3.58,3.58,0,0,0,4.07-3c.38-1.51,1.43-2,2.85-2.54a71.42,71.42,0,0,0,6.67-3.06,7.6,7.6,0,0,1,2.31-1c2-.15,3.38-1.28,4.94-2.35,2.32-1.58,4.63-3.68,7.64-3.47,8.83.62,17.76.48,26.17,4.08,1.64.7,3.85.12,5.79,0,1.09-.06,2.19-.63,3.25-.53,4.56.44,9.11,1,13.66,1.59a82.36,82.36,0,0,1,9.16,1.27c4.06,1,8.18.26,12.27.91,4.88.78,7.27,4.31,5.45,8.83a9.2,9.2,0,0,0-.34,3.93c.2,3-.43,5.57-3,7.57-2.93,2.31-2.91,2.74-1.31,5.93-.59,1.94-1.09,3.68-1.66,5.41a20,20,0,0,1-.94,2,20.47,20.47,0,0,1-6,7.85c-1.1.87-1.63,2.44-2.51,3.62-1.82,2.47-3.32,5.39-5.66,7.19-2,1.55-4.23,2.9-6.13,4.67a3.15,3.15,0,0,1-1.68.72c-5.3.72-7.6,5.09-10.52,8.67a2.26,2.26,0,0,0-.48,1.75c.85,3.14-.76,5.21-2.87,7.13-1.41,1.28-1.2,2.4-.44,4.21a17.77,17.77,0,0,1-.28,14.3c-1.56,3.67-3.55,6.72-7,8.78A3.3,3.3,0,0,0,912,1199c-.65,1.32-.18,3.18,1.17,3.42,4.31.78,6.28,4.69,9.59,6.79a5.74,5.74,0,0,1,2.73,5,6.05,6.05,0,0,0,3.27,5,5.66,5.66,0,0,1,2.44,2.19c1.86,3.72,3,7.82,5.5,11.22a1.32,1.32,0,0,1,.15.72,24.4,24.4,0,0,0,2.52,10.77,6,6,0,0,1,.43,1.8c.73,4.77,1.48,9.53,2.14,14.3.32,2.35.59,4.65,2.22,6.59a4.38,4.38,0,0,1,.65,2.45c.14,2.33.07,4.68.27,7a3.48,3.48,0,0,0,1.08,2.2c1.21,1,1.35,2.08,1.56,3.52.37,2.5-.42,4.65-1.17,6.87-1.53,4.49-1,8.45,2.66,11.79a34.27,34.27,0,0,1,3,3.67c-3,3.42-2.65,7-.85,10.81a7.49,7.49,0,0,1,.26,3.64,33.53,33.53,0,0,1-.88,5.82c-.66,2.44-.37,5.26-2.77,7.06s-2.45,2.6.35,3.88l1.29.59c0,1.34,0,2.56,0,3.77.09,1.83.17,3.66.39,5.48a13.61,13.61,0,0,0,.8,3.53c1.1,2.67,1.16,2.65-1.41,4.27.16.82.73,1.86.42,2.46-1.34,2.65-.88,5.54-1.46,8.2-.81,3.72-1.81,7.36-2.32,11.18a14,14,0,0,0,.17,5.81c.27,1,.62,1.89.83,2.86.55,2.56.25,2.93-2.09,4.4a5.64,5.64,0,0,0-2.42,2.57c-1.07,3.34.16,5.89,3.3,7.67.32.18.67.33,1,.54,1.92,1.29,2.24,2.08.86,3.93a49.42,49.42,0,0,1-4.79,5.14c-2,2-1.91,4.2.42,5.9a13.7,13.7,0,0,1,1.53,1c2.09,2,2.59,6.24.53,7.72s-4.08,3-4.37,5.82c0,.1-.18.17-.25.27-2,2.87-2.14,4-.07,6.58a5.91,5.91,0,0,1,1.35,5.19c-.63,3-.46,5.66,1.48,8.12A3.25,3.25,0,0,1,944,1450c.42,2,.87,4.06,1.19,6.1.16,1.06.55,2.53,0,3.18A20.53,20.53,0,0,0,942,1464.89Z" transform="translate(-525.57 -38.23)"/><path d="M1278.5,38.23c-415.83,0-752.93,337.1-752.93,752.93,0,282.62,155.72,528.87,386,657.64-10.22-45.26-18.43-90-18.4-101.31.08-25.17-11-51.76-28.8-69.54-2.73-2.73-10-6-17.21-13.88a78.42,78.42,0,0,1-17.07-30.81,18.13,18.13,0,0,1-12.91-3c-7.36-5.21-7.46-14-7.45-14.9.82-8.54,1.36-17.67,1.49-27.31a338.77,338.77,0,0,0-3-49.67q-2-39.48-4-79A94.33,94.33,0,0,1,759,1034.06c10.14-27.39,24.4-68.61,38.39-120.14,8.61-31.7,7.83-33.12,17.39-68.54,16-59.19,26.6-97.87,48.67-143,14.31-29.28,23.26-47.21,42.21-67.05,25.87-27.08,54.45-41,73-48.26,24.32-8.1,44-14.5,57.35-18.78,30.57-9.84,47.1-14.88,71.27-24.59,10.42-4.18,18.91-7.89,24.58-10.43-16.27.21-27.62-9.09-28.06-17.87-.25-5.18,3.21-11.57,8.33-14.68,6.06-3.68,10.48-.36,14.77-4.45s4.25-11.95,4.22-14.15c-.07-3.91-1.09-5.15-.75-10.18.24-3.49.85-4.67,0-6-2-3.06-8-.42-10.43-2.48-2.63-2.23-1.34-10.13,9.19-29.8a184.18,184.18,0,0,0,5.46-21.36c1.78-9.26,3-19.44,4.73-19.41a.8.8,0,0,1,.57.37q1.32-15.22,2.65-30.46a241.91,241.91,0,0,1-6.62-32.44,251.06,251.06,0,0,1-2-41.72,299.58,299.58,0,0,1,5.3-49q5-14.65,9.93-29.8,8.17-25.28,15.23-49.67a229.9,229.9,0,0,1,22.1-34.93c7-9.16,23.73-30.58,50.66-48.42,16.54-11,48-31.79,90.39-30.79,48.37,1.15,81.71,28.66,96.1,40.64a185.63,185.63,0,0,1,39.47,45.77,205.38,205.38,0,0,1,22.77,46.28,339.42,339.42,0,0,1,10.82,38.8c1.89,9.12,4.21,19.48,5.41,33.37,1,11.78,1,20.48.66,37.42-.45,25.3-1.64,29.26-1.66,46.35a378.45,378.45,0,0,0,2.19,40.41c-3.28,9.64-7.18,19.78-11.87,30.28q-3,6.61-6,12.76c-2.71,1.9-6,3.46-8.64,2.39-4.2-1.67-4.66-8.82-6.46-8.69s-2.48,6.45-2.48,6.45a45.64,45.64,0,0,0,1.16,19.87c1.22,4.08,3.07,7.88,3.54,14.42.26,3.61-.22,3.51-.23,8.75A100.93,100.93,0,0,0,1474.1,480c1.57,8,2.91,9.27,2,12.91-1.1,4.35-3.53,4.58-6,9.27-2.65,5.1-3.8,12.54-1.16,18.71,2.36,5.53,6.94,8.13,13.9,12.09,7.3,4.14,10.66,4.22,17.61,7.27a72.49,72.49,0,0,1,19.81,13.09c6.55,3.92,15,8.61,25,13.41,2.37,1.13,10.61,5,21.85,9.43,7.54,3,17.08,6.38,28.31,9.69,7.55,3.28,20.11,8.72,35.75,15.39,21.11,9,34.09,14.43,35.76,15.15,17.62,7.65,43.24,43.75,77.48,171.84A459.44,459.44,0,0,0,1807,967.06a157.62,157.62,0,0,1-24.45,29.32,162.39,162.39,0,0,1-34.86,24.76c-45,23.92-67.57,10-80.85,29.3-10.22,14.85-8.32,39.78,0,54.25.49.87,5.17,7.69,14.28,21.5,3.22,4.88,7,10.9,11.69,18.67,7,11.78,9.58,16.91,7.94,22.35-3.33,11.09-19.8,9.42-29.79,20.36-6.32,6.91-11.75,20.72-3.33,51.62,0,10.43-.13,26.49-.65,46.22s-1.13,32.06-1,52.64c.17,24,4,23.81,7,53.14a252.87,252.87,0,0,1,1.31,40.63c214.38-132.71,357.2-370,357.2-640.66C2031.43,375.33,1694.33,38.23,1278.5,38.23Z" transform="translate(-525.57 -38.23)"/><path class="cls-1" d="M1212.28,483.29c2.5-1,4.35-.73,5.9.84a20,20,0,0,0,7.54,5.3,3.56,3.56,0,0,1,1.21.85c1.86,1.78,3.68,3.6,5.56,5.37,3.5,3.31,7,6.6,10.55,9.9.63.59,1.23,1.21,1.87,1.8,2.47,2.26,5.08,3.73,8.42,1,1.19,1.08,2.31,2,3.33,3.06a19.28,19.28,0,0,0,9.41,5.64,4.18,4.18,0,0,1,1.39.53c8.31,5.59,17.85,8.33,27.1,11.75,6.7,2.47,13.49,4.7,19.43,8.9,2.24,1.58,4.21,1,5.67-1.32a7.14,7.14,0,0,0,.95-2.4c.45-2.44,2.08-3.53,4.3-4,2.77-.65,5.53-1.33,8.3-2a3,3,0,0,1,1.47-.11c3.35,1.08,6.33-.71,9.47-1.18a4,4,0,0,0,3.19-2.82,6.62,6.62,0,0,1,4.17-4c2.35-.88,3.64-2.73,4.82-4.89a16,16,0,0,1,9.5-8.16,4.27,4.27,0,0,0,2.26-1.74c1.88-3.24,4.87-4.35,8.31-4.82a4.41,4.41,0,0,0,2-.76c3.46-2.53,6.81-5.23,10.34-7.69,4-2.75,8.35-4.94,12-8,6.25-5.26,12.08-11,18.07-16.6,1.45-1.35,2.79-2.83,4.28-4.14a18,18,0,0,1,3-1.62,12.53,12.53,0,0,1-.5,3.12c-2,3.91-2.55,8.57-6.11,11.71-1.19,1.05-.81,2.35.46,3.1a8.12,8.12,0,0,0,2.77.76c1,.16,2.84-.08,3,.31.45,1.31.81,3.05.28,4.21-2.3,5.08-2.76,10.33-3,15.83-.27,5.78-1.65,11.56-5.38,16.38a7.06,7.06,0,0,0-1,1.53c-1.33,3.32-2.71,6.62-3.87,10-1.22,3.56-2.56,7-5.46,9.58-.36.32-.87.7-.94,1.12-.5,2.71-1.26,5.23-3.76,6.87-.27.18-.29.94-.22,1.4a4.82,4.82,0,0,1-1.47,4.35c-1.53,1.68-.94,3.25,1.12,4.46.76.45,1.71,1.11,1.93,1.85,1.8,6.29,7.66,7.44,13.17,6.9,1.41,1.57,2.87,3.26,4.39,4.87,1.12,1.19,2.41,2.45,4.17,1.68a3.72,3.72,0,0,0,2.53-4.08c-.45-4.15,2.59-6.22,5.45-8.17a30.21,30.21,0,0,1,5.71-2.71c2.92-1.2,4.09-.31,4.35,2.79.47,5.66.92,11.34,1.74,17a34.07,34.07,0,0,1-1.51,15.06A89.8,89.8,0,0,1,1421.94,629c-5.07,5.22-11.19,9.41-16.73,14.18a85.72,85.72,0,0,1-19.75,12.47,61.25,61.25,0,0,1-19,5c-6.28.73-12.62,1-18.93,1.34a43,43,0,0,1-7.42-.48c-12.22-1.56-24.35-3.68-35.86-8.19-8.07-3.17-15.85-7.07-23.76-10.66-3.16-1.43-6.3-2.92-9.46-4.37-11.32-5.2-21.75-11.95-32.13-18.74-5.92-3.86-11.68-8-17.38-12.14a69.69,69.69,0,0,1-15.91-16.6q-6.39-9.15-12.58-18.43a20.6,20.6,0,0,1-1.46-3.4c-.94-2.14-1.89-4.26-2.84-6.39-.1-.23-.27-.43-.35-.66-.48-1.36-1.61-2.86,0-4.07,1.33-1,2.65,0,3.69.83,3.13,2.53,6.72,4.5,9.26,7.78.53.69,2,.87,3,.93.8.05,1.66-.71,2.47-.67,3.27.2,5.63-.89,7.2-4,.34-.67,2-1,3-1,2.11,0,2.9-1,3.09-2.91.26-2.58.43-5-1.08-7.49-1.2-2-1.39-4.71-1.65-7.14-.32-2.94-.09-5.93-.39-8.86a8.49,8.49,0,0,0-1.5-4.51c-1.87-2.21-1.86-4.49-1.19-7a8.74,8.74,0,0,0-.14-4.7,39.36,39.36,0,0,1-1-8c-.23-4.57-.22-9.15-.33-13.72S1212.41,488.15,1212.28,483.29Zm34.23,63.07c4.75,1.63,7.28,5.58,10.53,8.72a5.54,5.54,0,0,0,3.73,1c2.92-.12,5.83-.69,8.76-.81a7,7,0,0,1,3,1.14c1.74.87,3.34,2.19,5.16,2.67a30.49,30.49,0,0,1,12.35,6.52c2,1.72,3.36,1.84,4.63.77s1.38-2.77.15-5.06a3.87,3.87,0,0,0-3-1.87,6.91,6.91,0,0,1-3.57-1.64c-2.71-3.18-5.14-6.59-7.76-10-3.18-.38-3.18-.38-6.2,2-2.11,1.69-4.16,2.05-5.65.42s-3.3-1.88-5.33-2c-3.35-.11-6.52-.57-9.42-2.73C1251.77,544,1249.11,544,1246.51,546.36ZM1255,561.6l-.27.92c2,2.61,3.2,5.86,7.63,5.85,2,0,4.23,1.35,6,2.63,3.25,2.41,6.9,2.46,10.57,2.39,1.66,0,2.3-1.35,1.91-2.92-.71-2.78-3.78-6-6.56-5.82-3,.13-5-1.13-6.87-3a3.64,3.64,0,0,0-4.07-.78,19.44,19.44,0,0,1-4.34.49C1257.64,561.5,1256.32,561.53,1255,561.6Zm76.57,39.83a23.72,23.72,0,0,0-3.32,3.4c-.39.61-.26,2.29.19,2.55a3.36,3.36,0,0,0,3,.22,6.27,6.27,0,0,0,2.76-3.32,5,5,0,0,1,2.6-3.71,2.38,2.38,0,0,0,.83-2.14,2.59,2.59,0,0,0-2-1.21,23.78,23.78,0,0,0-4.39.66c-.3.06-.55.4-.89.66Zm-41-46.07,0,.92,2.2-.4-.09-.66Z" transform="translate(-525.57 -38.23)"/><path class="cls-1" d="M1262.53,238.76c-2.5,1.35-5.19.64-7.85.61-3.83,0-7.66.15-11.47.38a4.75,4.75,0,0,0-2.32,1.08c-1.66,1.23-4.09,2.25-3.66,4.71s3.22,2.22,5.11,2.92c1.5.55,3,1.18,4.49,1.66,6,1.9,11.78,4.53,18.23,4.32a16.48,16.48,0,0,0,4.36-.7,60.24,60.24,0,0,1,11.24-2.37,21.5,21.5,0,0,0,8.62-3.12,19.24,19.24,0,0,1,8.42-2.55,8.42,8.42,0,0,0,5.6-2.47,23.62,23.62,0,0,1,3.71-2.63l5.16,4.72c2.37-1.77,4.28-3.58,4.82-6.43.42-2.21.84-4.36,2.72-6a4.41,4.41,0,0,0,.86-2.37,33.22,33.22,0,0,0,.67-4.42c.18-3,1.88-4.48,4.58-5.62a35.87,35.87,0,0,1,10.07-2.38,11.87,11.87,0,0,1,13.06,9.59c.43,2.06.62,4.17.94,6.25.36,2.36,1,4.57,3.4,6.21l3-3.2c1.71,1.69,3.64,3.11,5,5,2.39,3.41,5.75,5.42,9.25,7.3,4,2.16,8.13,4.25,12.22,6.31a10.69,10.69,0,0,0,2.81.94,50.32,50.32,0,0,0,23.55-1.45,45.6,45.6,0,0,0,9-4.3c.91-.51,1.35-1.85,2-2.82-.91-.53-1.78-1.4-2.75-1.54a61.08,61.08,0,0,0-8.11-.59c-5.65,0-10.52-2.36-15.27-5.05-.33-.19-.43-.77-.6-1.1.24-.26.32-.43.41-.43,7.27-.41,14.54-1,21.82-1.13,4.44-.07,8.89.59,13.35.87,3.34.21,3.57.12,5.89-1.68a5.71,5.71,0,0,0-3.78-3.64c-4.77-1.76-9.56-3.46-14.26-5.37a84,84,0,0,0-23.39-5.78c-.37,0-.74-.07-1.1-.13-1.41-.24-2.73-.65-2.9-2.36a2.49,2.49,0,0,1,2.33-2.86c2.3-.34,4.75-.9,7-.43,6.17,1.3,12.4,2.62,18,5.85a33.41,33.41,0,0,0,4.87,2.52c-.76-2.7-2.82-4.11-5-5.34-7.13-4-14.91-5.31-23-5.48a24.91,24.91,0,0,1-3.35-.08c-1.72-.27-2.43-1.42-1.58-2.94a6.8,6.8,0,0,1,3-3.11c3.78-1.39,7.43-3.47,11.75-2.95a19.4,19.4,0,0,0,4.06-.36,7.9,7.9,0,0,1,1.84-.22c4.5.6,9,1.38,13.57.93a4,4,0,0,1,2.53,1.36c2.29,2.23,5,4.16,5.79,7.57a2.17,2.17,0,0,0,.78,1.23c1,.64,2,1.14,3,1.7.26-1,.51-2,.76-3,.06-.24.13-.47.27-1,2.27-.2,3.78,1.12,5.21,2.6-1.07,3.12-1,3.84,1.8,5.37a3.77,3.77,0,0,1,2.14,4.28c-.82,5.56,1.09,10.83,1.65,16.23,0,.13,0,.29.08.36,2.76,3,3.06,7.21,5.19,10.45a11.38,11.38,0,0,1,2,6.62,7.61,7.61,0,0,0,.86,4.23c2.57,3.6,3.91,7.72,5.38,11.78,1.31,3.61,2.35,7.32,3.33,11a46.83,46.83,0,0,1,1.23,6.95c.24,2.26-.58,3-2.8,2.65a33.61,33.61,0,0,1-5-1.38c-13.22-4.38-26.77-7.48-40.37-10.39-9.1-2-18.16-4.1-27.22-6.21a186.9,186.9,0,0,1-40.21-14.34c-4.47-2.2-9.11-3.25-14.06-1.76a3.44,3.44,0,0,1-1.1.19c-7.56-.19-14.15,3.22-21.06,5.52a90.57,90.57,0,0,1-16.16,4.19c-16.35,2.2-32.78,3.82-49.15,5.88-8.73,1.1-17.4,2.73-26.12,4-11.11,1.58-21.84,4.62-32.49,8-.57.19-1.17.32-2.31.62a23.42,23.42,0,0,1,0-4.46c1.2-5.69,2.56-11.34,3.85-17a14.88,14.88,0,0,0,.31-2.21c.51-7.92.88-15.86,1.57-23.77a36.83,36.83,0,0,1,4.27-14.88c2.33-4.26,4.44-8.55,7.72-12.19.78-.86,1-2.26,1.46-3.39.77-1.73,1.73-3.28,3.92-3.69a7.17,7.17,0,0,1,2.21,5.68,4,4,0,0,0,2.48,3.85,3.36,3.36,0,0,0,4.28-1.33c1.69-2.52,3.63-2.63,6.14-.92.47-.92.8-1.68,1.23-2.37s.89-1.84,1.54-2c4.14-1.07,6-5,9.23-7.16.31-.21.57-.63.88-.66,2.95-.26,5.55-1.61,8.32-2.44,2.29-.68,4.89-.33,7.35-.43a.76.76,0,0,1,.37,0c6.41,2.79,13.77,3,19.62,7.31a7.56,7.56,0,0,1,1,1.13c-1.21,1.58-2.79,1.13-4.19,1.15-4,0-8-.24-11.91.09a33.72,33.72,0,0,0-18.27,6.67c-2.09,1.62-4.22,3.29-5.47,6.19.81,0,1.39.19,1.71,0,2.82-1.9,6.31-2.86,8.13-6.22a5,5,0,0,1,3.25-2.14c7.34-1.17,14.72-2.18,22.1-3.11a8,8,0,0,1,6.66,2c-1.44,3.09-3.44,4.86-6.87,4.83-4.47,0-9-.18-13.31,1.11s-9,2.78-13.48,4a33.11,33.11,0,0,1-7.64,1.44,12.4,12.4,0,0,0-8.21,2.88c-1.5,1.3-3.22,2.35-4.67,3.69-2,1.83-1.67,3.45.82,4,3.53.83,7,2.13,10.46-1,2.32-2.09,5.91-1.65,9-1.32s5.87,1,8.81,1.52c2.68.49,5.37,1,8,1.5,1.11.24,2.18.68,3.26,1C1262.66,238,1262.59,238.39,1262.53,238.76Z" transform="translate(-525.57 -38.23)"/><path class="cls-1" d="M1225.78,184.89c1.08-2.76,1.91-5.18,3-7.5a92.65,92.65,0,0,1,4.79-9.62,21.82,21.82,0,0,1,4.35-4.51q5.25-4.72,10.68-9.26c.7-.59,1.92-1.31,2.58-1.08,2.85,1,4.07-1,5.61-2.59,2-2,4.1-3.93,6-6.07a21.82,21.82,0,0,1,11.3-6.79c4.29-1.1,7.81-3.67,11.77-5.38,1-.43,2.16-1.13,3.09-.93,2.61.53,4.29-.8,6.43-1.92a44.28,44.28,0,0,1,11.48-3.87,20.28,20.28,0,0,0,4.12-1,7.31,7.31,0,0,1,3.87-.69c5.94,1,11.83,1.87,17.8.07,2.09-.64,4-.62,5.5,1.67s5.76,2.51,8,.44,3.94-1.94,6.36-.71c5.27,2.66,10.79,4.9,14.73,9.4,2.88-1.24,2.87-1.23,3.76,1.59a4.1,4.1,0,0,0,.82,1.61A42,42,0,0,0,1386.46,148a13.45,13.45,0,0,0,5.49.59,9.4,9.4,0,0,1,8.28,4.21c2.07,2.83,4.68,5,7,7.52,3.74,3.95,7.25,8.14,10.81,12.26,1.21,1.39,2.3,2.89,3.52,4.44-.89,2.81-3.45,2.31-5.48,2.76-.07.64-.12,1.22-.18,1.87a5.61,5.61,0,0,1-1.13-.08,6.32,6.32,0,0,1-1.72-.69c-5.84-4-12.41-4.47-19.21-4.11-3.08.16-6.18-.16-9.28-.25-2,0-4-.46-5.91,0-5.18,1.15-10.29,2.63-15.42,4-2.62.71-5.24,1.43-7.8,2.31a4.41,4.41,0,0,0-2.48,1.77c-1.71,3.91-3.67,7.45-7.46,9.88-1.43.92-2.31,2.84-3.2,4.44s-1.94,1.88-3.33,1c-2.7-1.79-5.36-3.59-8.78-3.71a1.86,1.86,0,0,1-1.26-.7c-2.48-3.44-5.62-2.37-8.7-1.26a7.48,7.48,0,0,1-5.34.23c-.92-6-.36-7.36,4.28-10.79-.07-1.4-1.09-1.89-2.24-1.94a17.78,17.78,0,0,0-4.06.26,5.55,5.55,0,0,1-5.37-1.55,8.9,8.9,0,0,0-5.06-1.82,7.11,7.11,0,0,1-5.23-2.36c-1.59-1.89-3.55-2.21-6-2-3.91.3-7.87.05-11.81,0-1.48,0-3-.06-4.45,0-3.46,0-6.93-.05-10.37.24a34.4,34.4,0,0,0-8.34,1.54,11.47,11.47,0,0,1-6.51.74,7.25,7.25,0,0,0-6.32,1.24,5.3,5.3,0,0,1-3.41,1c-2.14-.27-3.42.87-5,1.94a64,64,0,0,1-7.07,3.93C1227.53,185.09,1226.85,184.89,1225.78,184.89Z" transform="translate(-525.57 -38.23)"/><path class="cls-1" d="M1001.32,1191.81c-.24-1.59-.05-3.24-.29-4.83-1-6.86-1.83-13.78-3.31-20.55-1.14-5.18-3.19-10.16-4.81-15.25-2.88-9.09-3.16-18.56-3.79-28-.43-6.57-.63-13.15-1.06-19.72-.12-1.89.23-4-1.76-6.1a11.93,11.93,0,0,0-1.21,2.21c-1,3.71-1.9,7.44-2.81,11.18-4.08,16.88-7.94,33.82-12.29,50.63-4.74,18.38-10.16,36.58-11.83,55.62a251.72,251.72,0,0,0,.59,45.36c1,10.62,2.23,21.22,3.37,31.83.39,3.58.75,7.17,1.31,10.72.13.79,1.07,1.45,1.64,2.17.6-.66,1.5-1.23,1.76-2,2.07-6.1,3.88-12.29,6-18.36,4.39-12.4,9-24.72,13.4-37.11,4.16-11.69,8.16-23.44,12.27-35.15C1001.11,1207.13,1002.46,1199.63,1001.32,1191.81Zm-2.59,10.66c-.15.78-.93,3.35-2.48,8.44s-2.9,9.45-3.81,12.33c0,0-1.74,5.15-3.47,10.43s-3.08,9.52-4,12.42c-1.23,2.75-3.07,7-5,12.25s-3.72,10.55-7.94,24.5c-4.51,14.88-5.48,18.57-6.54,18.46-.73-.08-1.45-6-2.65-17.88-1.16-11.49-1.54-16.18-1.66-17.71-.45-5.72-.73-10.24-.91-13.25-.66-11.24-1-16.86-1-19.11a156.67,156.67,0,0,1,1.93-25.29c.56-3.4.36-1.79,2.3-11.74,2.77-14.19,3.19-16.58,4.35-21.54a167.58,167.58,0,0,1,5.09-17.57c5-14.46,11.08-54.33,13.32-54.07,1.44.17-1.31,16.36,2.2,38.86a151.43,151.43,0,0,0,6.91,27.28c1,5.59,1.79,10.33,2.32,13.9C999.51,1195.75,999.38,1199.15,998.73,1202.47Z" transform="translate(-525.57 -38.23)"/><path class="cls-1" d="M1620.45,1352.94c-.21-7.19-.46-14.38-.7-21.57-.75-22.57-2.42-45.12-1.06-67.73.83-13.76.37-27.54.34-41.32a432.72,432.72,0,0,0-2.64-48.3c-.52-4.55-1.33-9.07-2.14-13.58-.28-1.58-.79-3.08-2.87-3.43-.62-.11-1.34-1.32-1.49-2.13-.26-1.44,0-3-.19-4.45a14.38,14.38,0,0,0-1.22-2.93c-.63,1.57-1.13,2.29-1.17,3-.14,2.84-.23,5.69-.12,8.52a10.46,10.46,0,0,0,.93,3.84c1.58,3.52,2.28,7,.75,10.76A7,7,0,0,0,1610,1181a4.25,4.25,0,0,1,0,5.41,6.81,6.81,0,0,0-1.45,2.48,30.52,30.52,0,0,0,1,12.39l1.46-.91a45.45,45.45,0,0,0-1.11,6.28c-.58,16.49-4.64,32.39-8.31,48.33a64.81,64.81,0,0,0-2,14.68c0,9.55.26,19.11.15,28.66-.15,11.41-.5,22.84.88,34.2a88.81,88.81,0,0,0,3.09,15.28c1.62,5.24,4.29,10,9.66,12.61,3.56,1.7,6.57.17,7-3.71A27.16,27.16,0,0,0,1620.45,1352.94Zm-3.83-1.73a1.25,1.25,0,0,1-1,1.21,1.23,1.23,0,0,1-.85.51c.18.33.42.79.68,1.35.87,1.86,1.38,3,1,3.47-.53.73-2.84-.07-3.48-.33-5-2-7-11-8.27-19.2a148.25,148.25,0,0,1-1.67-25.16c.25-10.2,1.34-15.84,1.44-26.32,0-4.66.06-10.6.06-10.6,0-3.05,0-5.56,0-7.29a39.16,39.16,0,0,1,.33-6.45c.7-5.17,1.81-5.52,2.82-10.27,1.57-7.43,0-11.83,3.75-16.3l0-.06a1.38,1.38,0,0,1-.19-.57,1.8,1.8,0,0,1,0-.3c.77-5.57.31-11.25.52-16.87.25-7,0-14.46-.17-22-.66-23.49-2.51-36.14-1-36.42.83-.15,2.15,3.55,2.71,5.13,3.59,10.11,1.44,17.33,2.42,35.81a113.31,113.31,0,0,1-.29,18c-.6,5.67-.89,11.37-1.68,17a1.17,1.17,0,0,1-.12.36,1.22,1.22,0,0,1,0,1.2,14.77,14.77,0,0,0-.63,1.34,1.06,1.06,0,0,1,1.06,1.23c-.06.51-.1,1-.15,1.53a1.19,1.19,0,0,1,.89,1.2,84.38,84.38,0,0,1-2.19,19c0,.66,0,1.32-.06,2a201.47,201.47,0,0,0,.7,21c1.05,11.65,1.38,17.49,1.38,21.82,0,2.36-.07,19.36.6,24.17,0,.24.21,1.4.33,3,.19,2.25.17,3.93.17,4.47,0,1.86.07,5.06.43,10.92a1.79,1.79,0,0,1,.22.28A2.62,2.62,0,0,1,1616.62,1351.21Z" transform="translate(-525.57 -38.23)"/><path class="cls-1" d="M1547.14,803.62c2.62-3.73,4.94-7.07,7.31-10.37,1.52-2.12,2.68-2.5,5.1-1.68a14.25,14.25,0,0,1,7.24,5c1.7,2.31,1.79,4.15,0,6.42-3.09,4-6.22,8-9.35,12-1.64,2.08-1.72,2.23,0,4.47,2.26,2.94,4.79,5.69,6.89,8.74a14.49,14.49,0,0,1,2.56,6,4.73,4.73,0,0,1-3.17,5,6.53,6.53,0,0,1-7.29-1.27c-2.2-2.15-4.07-4.65-6.06-7-.68-.81-1.27-1.69-2.1-2.79-1.53,2.79-2.81,5.17-4.14,7.52-2.25,4-5.34,5.28-8.46,3.61a7.55,7.55,0,0,1-3-9.72,31,31,0,0,1,2.35-3.79c.48-.72,1.09-1.35,1.57-2.07,2.83-4.25,2.73-5.07-.25-9.17s-6-8.24-8.69-12.52c-2.11-3.31-1.8-4.45,1-7.1a34.21,34.21,0,0,1,2.78-2.48c3.17-2.43,5.59-2.16,8,1,2.19,2.85,4.26,5.8,6.39,8.7C1546.2,802.51,1546.59,803,1547.14,803.62Zm9.75,2.53c1.78-2.4,1.56-2.84-2.22-4.06-.25.89-.49,1.78-.74,2.66-.25.58-.87,1.32-.7,1.72C1554,808.23,1555.15,808.09,1556.89,806.15Zm-17,4.23a5.18,5.18,0,0,0,.43,1.14c4.53,5.56,9.45,10.78,13.34,16.87a9,9,0,0,0,5.93,4.5L1542.74,808ZM1534,798.49a9.25,9.25,0,0,0-.65,1.51.9.9,0,0,0,.27.58,1.54,1.54,0,0,0,.86-.4C1534.6,800,1534.36,799.63,1534,798.49Z" transform="translate(-525.57 -38.23)"/><path class="cls-1" d="M1455.88,406.07c-4.75-5.45-7.22-10.86-6.18-17.49.44-2.77.55-5.62,3.82-7.11.94-.43,1.41-2.5,1.6-3.89q1.79-13.26,3.32-26.54c.67-5.79,1.12-11.6,1.72-17.39a11.35,11.35,0,0,1,.82-4,8.65,8.65,0,0,1,2.88-3.13c1.08-.7,2.14,0,2.6,1.24a3.62,3.62,0,0,1,.19,1.09c.44,13,2,26,0,39-1.25,8.31-3.18,16.54-5.06,24.75a73.93,73.93,0,0,1-3.4,9.81A24.28,24.28,0,0,1,1455.88,406.07Z" transform="translate(-525.57 -38.23)"/><path class="cls-1" d="M1165.53,405.13a30.72,30.72,0,0,1-1.27,3.55c-4.83,9.59-10.63,18.49-18.63,25.79a6.86,6.86,0,0,1-2.39,1.71,3.37,3.37,0,0,1-2.7-.28c-.59-.49-.61-1.7-.77-2.62,0-.31.26-.68.39-1,3.64-10.15,7.33-20.28,10.87-30.46a83.09,83.09,0,0,0,2-8.3,7.9,7.9,0,0,1,.61-2.51,4.41,4.41,0,0,1,2.35-1.93c.57-.1,1.64,1,2,1.73a15.35,15.35,0,0,1,1.2,3.9,13.14,13.14,0,0,0,3.89,7A19.7,19.7,0,0,1,1165.53,405.13Z" transform="translate(-525.57 -38.23)"/><path class="cls-1" d="M965.08,1437.7a40,40,0,0,1-.29-4c.38-11.78.22-23.6,2.19-36.1.87,1,1.29,1.29,1.4,1.66,2.4,7.94,4.77,15.89,5.29,24.24C974.07,1429.76,971.73,1433.88,965.08,1437.7Z" transform="translate(-525.57 -38.23)"/><path class="cls-1" d="M1188.45,311.73c2.71.82,2.56,2.42,2.48,3.89-.22,4.45-.55,8.91-.77,13.36-.45,8.92-.92,17.83-1.26,26.75-.18,4.72-.09,9.44-.17,14.15,0,.93-.19,1.85-.35,3.24-2.6-2.87-2.68-6-2.85-9-.35-5.92-1.23-12-.28-17.78,1.65-10.09.41-20.28,2-30.3A41.55,41.55,0,0,1,1188.45,311.73Z" transform="translate(-525.57 -38.23)"/><path class="cls-1" d="M1429.66,495c4.73.19,7,3.08,8.94,6.26a13.67,13.67,0,0,1,1.72,4.89,7.77,7.77,0,0,1-.57,4.24c-1.43,3-2.68,2.87-5.38.8C1428.79,506.93,1429.92,501.06,1429.66,495Z" transform="translate(-525.57 -38.23)"/><path class="cls-1" d="M1441.55,496.88c-3.37-1.11-6.17-2.64-7.66-6a22.92,22.92,0,0,0-2-3.12,23.22,23.22,0,0,1-1.42-2.18c-1.1-2.11-1.2-4.4-.11-4.78,2.21-.78,2.91,1.11,3.92,2.48,2.2,3,4.5,5.9,6.76,8.84C1442.12,493.55,1442.93,495,1441.55,496.88Z" transform="translate(-525.57 -38.23)"/><path class="cls-1" d="M1293.88,236.31a11.51,11.51,0,0,1-6.62,1.76c-1.39,0-2.51-.69-2.41-2.23s1.49-1.59,2.55-1.5c2.16.19,4.31.61,6.46.94C1293.87,235.62,1293.87,236,1293.88,236.31Z" transform="translate(-525.57 -38.23)"/><path class="cls-1" d="M1487.17,542.92c4.19-1,7.38-.86,10.26,1.75C1495.46,545.73,1491.06,545.06,1487.17,542.92Z" transform="translate(-525.57 -38.23)"/><path class="cls-1" d="M1368.57,238.69c-3.19,1.18-3.59,1-6.41-2.32C1364.62,236.87,1367.18,235.81,1368.57,238.69Z" transform="translate(-525.57 -38.23)"/><path class="cls-1" d="M1463.8,534.59c-2.23-.84-3.15-1.93-2.47-3.11a1.81,1.81,0,0,1,1.49-.71C1464.25,531,1464.5,532.07,1463.8,534.59Z" transform="translate(-525.57 -38.23)"/><path class="cls-1" d="M1475.38,540.54c-2.4-.31-3.6-1.34-4-3.4C1474.14,536.76,1474.63,537.15,1475.38,540.54Z" transform="translate(-525.57 -38.23)"/><path class="cls-1" d="M1278.31,236.12c-1,1.39-2,1.36-3.42.53C1275.91,235.07,1276.9,235.13,1278.31,236.12Z" transform="translate(-525.57 -38.23)"/><path class="cls-1" d="M1188.37,295.67l.22,2.17-.49.06c-.11-.72-.21-1.44-.32-2.16Z" transform="translate(-525.57 -38.23)"/><path class="cls-2" d="M1600,1080.72l-.55.46a3.58,3.58,0,0,1-.38-.79c0-.09.29-.25.45-.38Z" transform="translate(-525.57 -38.23)"/><path d="M1246.51,546.36c2.6-2.4,5.26-2.41,7.38-.83,2.9,2.16,6.07,2.62,9.42,2.73,2,.07,3.78.25,5.33,2s3.54,1.27,5.65-.42c3-2.42,3-2.42,6.2-2,2.62,3.43,5,6.84,7.76,10a6.91,6.91,0,0,0,3.57,1.64,3.87,3.87,0,0,1,3,1.87c1.23,2.29,1.25,3.88-.15,5.06s-2.61.95-4.63-.77a30.49,30.49,0,0,0-12.35-6.52c-1.82-.48-3.42-1.8-5.16-2.67a7,7,0,0,0-3-1.14c-2.93.12-5.84.69-8.76.81a5.54,5.54,0,0,1-3.73-1C1253.79,551.94,1251.26,548,1246.51,546.36Z" transform="translate(-525.57 -38.23)"/><path d="M1255,561.6c1.32-.07,2.64-.1,4-.2a19.44,19.44,0,0,0,4.34-.49,3.64,3.64,0,0,1,4.07.78c1.91,1.83,3.91,3.09,6.87,3,2.78-.13,5.85,3,6.56,5.82.39,1.57-.25,2.9-1.91,2.92-3.67.07-7.32,0-10.57-2.39-1.72-1.28-4-2.64-6-2.63-4.43,0-5.64-3.24-7.63-5.85Z" transform="translate(-525.57 -38.23)"/><path d="M1331.57,601.43l-1.26-2.89c.34-.26.59-.6.89-.66a23.78,23.78,0,0,1,4.39-.66,2.59,2.59,0,0,1,2,1.21,2.38,2.38,0,0,1-.83,2.14,5,5,0,0,0-2.6,3.71,6.27,6.27,0,0,1-2.76,3.32,3.36,3.36,0,0,1-3-.22c-.45-.26-.58-1.94-.19-2.55A23.72,23.72,0,0,1,1331.57,601.43Z" transform="translate(-525.57 -38.23)"/><path d="M1290.53,555.36l2.16-.14.09.66-2.2.4Z" transform="translate(-525.57 -38.23)"/><path d="M1539.94,810.38l2.8-2.34,16.9,24.85a9,9,0,0,1-5.93-4.5c-3.89-6.09-8.81-11.31-13.34-16.87A5.18,5.18,0,0,1,1539.94,810.38Z" transform="translate(-525.57 -38.23)"/><path d="M1553.93,804.75c.25-.88.49-1.77.74-2.66,3.78,1.22,4,1.66,2.22,4.06l.06.12c-.48-1.64-1.74-1.73-3.12-1.58Z" transform="translate(-525.57 -38.23)"/><path d="M1556.89,806.15c-1.74,1.94-2.9,2.08-3.66.32-.17-.4.45-1.14.7-1.72l-.1-.06c.56,1.47,1.76,1.69,3.12,1.58Z" transform="translate(-525.57 -38.23)"/><path d="M1534,798.49c.34,1.14.58,1.53.48,1.69a1.54,1.54,0,0,1-.86.4.9.9,0,0,1-.27-.58A9.25,9.25,0,0,1,1534,798.49Z" transform="translate(-525.57 -38.23)"/><path class="cls-1" d="M1557,806.27c-1.36.11-2.56-.11-3.12-1.58C1555.21,804.54,1556.47,804.63,1557,806.27Z" transform="translate(-525.57 -38.23)"/><path class="cls-2" d="M1808.72,1141.14" transform="translate(-525.57 -38.23)"/><path class="cls-3" d="M1733.05,1229.31c-2.6,10.83-6.42,12-8.62,22.72s1.3,11.46-.47,25.78c-.36,2.91-.3,1.2-5,23.24-2.16,10-2.81,13.27-3,18.19-.27,5.9.35,7.65.51,15.16a167.46,167.46,0,0,1-.86,19.25c-1.84,22.19-9.1,55.24-9.58,57.41q-10.65,7.37-22.23,14.79-10.14,6.48-20,12.33A221,221,0,0,0,1667,1400a254.36,254.36,0,0,0-2.06-31.08c-1.69-13.19-3.73-21-5-36.84a92.24,92.24,0,0,1-.27-14.12c.42-6.11,1.55-10.37,2.22-17.29h0a32.32,32.32,0,0,0,.53-12.36c-3.28-25.25,5.1-44.06,5.1-44.06-.68-3.73-1.59-9.1-2.48-15.62a163.15,163.15,0,0,1-1.81-17.35c-.15-6.08.6-15.5,5.58-27.28l21.6-9.85,5.43-10.94a161.42,161.42,0,0,1-31.36-51.79,178.22,178.22,0,0,1-6.1-21.45,184.19,184.19,0,0,1-4.34-39,34.82,34.82,0,0,1,9.21-9.75c8.17-5.81,16.1-6,30.53-8.39a238.62,238.62,0,0,0,29.43-6.36,149.39,149.39,0,0,0,33.21-14.76,163.74,163.74,0,0,0,30.66-22.85c1.59,22.11-3,37-7.61,46.59-4.93,10.24-13.61,22.21-11.62,34.76a120.45,120.45,0,0,1,1.51,13.64c.36,6.73.54,10.09-.5,13.14-2.54,7.43-7.91,7.18-9.6,13.64-1.4,5.34,1.74,7.5,2.23,14.59.53,7.75-2.63,13.56-5.27,18.76-14.3,28.14-22.14,43.57-22.73,61.13C1733.21,1215.21,1735.53,1219,1733.05,1229.31Z" transform="translate(-525.57 -38.23)"/><path class="cls-2" d="M1999.33,1204" transform="translate(-525.57 -38.23)"/><path class="cls-1" d="M1623.79,1365.6c-2.69,1,5.23,27.69,13.77,48.94,7.92,19.73,10.39,19.9,11.11,19.8,3.78-.5,7.07-14.26,3.16-26-1.87-5.65-4.33-7.6-10.36-15.66C1628.42,1375.19,1625.45,1365,1623.79,1365.6Z" transform="translate(-525.57 -38.23)"/><path d="M845.05,1248.76" transform="translate(-525.57 -38.23)"/><path class="cls-1" d="M836.34,1119.92c6.55-4,16.1-9.61,27.85-16.11,20.59-11.39,24.39-12.38,26.72-12.88,9-2,14.34-.47,40,3.85,12.81,2.15,23.11,3.74,29.32,4.67a37.74,37.74,0,0,1,.11,8.56c-.24,2.42-1,7.39-5.38,16.06-5.16,10.21-8.43,16.68-15.57,21.8-6.95,5-11.51,4.37-14.21,9.86-1.25,2.54-1.32,4.79-4,10.42-1.48,3.13-2.42,4.46-3.24,6-1.78,3.42-3.47,8.9-2.44,17.65-5.62,4.5-6.89,8-6.63,10.61.34,3.62,3.52,4.6,10.42,11.75,3.45,3.58,7.34,7.67,10.23,13.45,1.43,2.86,2.17,5.26,3.6,11.18,4.42,18.39,4.1,23.87,7.77,34.49a91,91,0,0,0,5.3,12.31c-4.74,6.05-4.91,9.81-4.17,12.13,1.27,4,5.22,3.89,6.63,8.52,1,3.31-.74,4.18-.56,11.18.11,4.5.84,4.55.56,7.39-.49,5.06-3,7.07-4.16,10.42s-1.1,8.61,4.35,16.87a48,48,0,0,0-6.06,26.33,44.7,44.7,0,0,0,1.31,8c-2.19,2.17-4.75,5.41-4.15,8.73.71,3.93,5.36,5.1,5.11,8.14-.25,3.21-5.55,3.61-6.63,7.2-.6,2,0,5.25,5.69,10.61-2.4,1.43-5.57,3.89-6.82,7.77-.59,1.83-.69,3.76,1.51,12.51,2.46,9.76,3.84,12.36,3.22,17.05a20.45,20.45,0,0,1-2.08,6.63l-26.34-14.78A157.06,157.06,0,0,1,908.5,1424c-.87-6.8-1.22-13.33-3.57-23.46-.95-4.07-1.63-6.19-2.46-9.2-4.24-15.27-5.61-28.57-6.83-40.82-2-20.23,0-17.14-1.7-26-3.57-18.15-12.07-30.72-16.11-36.57A107.49,107.49,0,0,0,850,1260.32l-16.62-32.19-8-5.42a22.07,22.07,0,0,0,3.8-8.47c.84-4.12-.24-5.38-.43-12.85-.17-6.51.61-7.17.09-12.49a7.52,7.52,0,0,0-.39-2.94,6,6,0,0,0-.46-.93,9.61,9.61,0,0,1-.84-4.89c.15-4.87-.2-13.43.33-18.61.07-.71.15-1.3.16-1.4,0-.28.21-1.39.59-3.13.17-.75.18-.7.75-3.06.21-.91.32-1.36.34-1.44.48-2.28-1.29-4-1.66-5.81-.88-4.25,6.58-7.34,5.64-10.86-.58-2.13-3.56-1.85-4.46-3.95C828.06,1130,829,1126.67,836.34,1119.92Z" transform="translate(-525.57 -38.23)"/><path d="M986.4,1102.58c.05,1.52.13,3.71.25,6.34.49,10.9,1,22.65,3,35.15a191,191,0,0,0,5.72,25.21c1.38,8.43,2.43,15.18,3.09,19.51a56,56,0,0,1,.69,7.25c0,1.64,0,3,0,3.83s-.25,2.05-.5,3.52c-1.08,6.41-2.6,10-5.5,18.15-2.25,6.35-3.9,11.44-5.32,15.8S986,1243,985,1246.09c-5.3,16.53-8.55,22.46-13.75,39.26-.66,2.13-1.17,3.85-1.47,4.85-.58,2-.87,3-.94,3.32a46.52,46.52,0,0,1-1.3,5.7,3.2,3.2,0,0,1-1.25,1.75,2.33,2.33,0,0,1-.82.33l-.16-.11c-1.3-1-1.08-2.94-1.26-5.82-.08-1.43-.32-2.84-.47-4.26-.45-4.16-.4-3.7-.46-4.23-.31-3-.82-7.83-1.25-12.45-1.05-11.41-1.6-21.47-1.68-23,0-.91-.09-2.2-.24-4.09-.06-.88-.11-1.33-.16-2.29s0-1.24-.12-2.67c0-.7,0-.68-.12-2.05,0-.64-.08-1.56-.13-2.57-.08-1.6-.12-2.4-.15-3.32,0-1.32,0-2.32,0-3,.07-6.73.1-10.09.18-11.56a79.91,79.91,0,0,1,1.74-11.9c3.35-17.52,5.19-27.8,7.48-36.73.44-1.69,1-3.95,1.93-6.95s1.38-4.17,2.33-7.17h0c1.17-4.4,2.22-7.74,2.29-8,1-3.64,2-8.61,4.38-19.93,2.22-10.57,2.09-9.67,2.15-10.12.8-5.6.82-10.41,4-15.62C986,1103.12,986.26,1102.79,986.4,1102.58Z" transform="translate(-525.57 -38.23)"/><path d="M1617.63,1357.52c-1.73-20-2.53-37-2.92-50-.54-17.78-1.17-38.93.11-62.13.57-10.16.48-20.34,1-30.49.05-.85.17-3.23.2-6.42,0-5.15-.22-7.93-.38-11.61-.47-10.51.59-11.5-.16-20.86a46.65,46.65,0,0,0-1.38-9,41.71,41.71,0,0,0-4.1-9.91c0,2.49.07,6.34.29,11.07.13,2.85.23,4.15.46,7.7.53,8.34,1,16.32,1.16,25.82,0,0,0,2.56,0,5.2,0,17.76-5.4,41.4-8,60.49s-2.3,32.82-2,46.35c0,0,.18,8.76,3.71,29.86a41.45,41.45,0,0,0,1.85,6.7,15.77,15.77,0,0,0,1.67,3.56c.85,1.26,2.29,3.45,4.89,4A6.66,6.66,0,0,0,1617.63,1357.52Z" transform="translate(-525.57 -38.23)"/><path d="M1731.88,1009.1l46.36-25.69c2.7,4.93,5.83,11.94,3.68,14.88-.29.4-1.49,1.83-2.17,2.62-1.09,1.29-2.07,2.44-3.36,3.78-2.61,2.73-2.92,2.54-3.31,3.52-.57,1.45,0,2.22.15,5.17a46.73,46.73,0,0,1-.24,5.21c-.14,1.92-.38,5.36-.85,8.76a98.44,98.44,0,0,1-3.44,15.25,52.23,52.23,0,0,1-7.25,16.28c-.81,1.63-2,4-3.33,6.94-1,2.26-1.58,3.4-2,4.5a42.78,42.78,0,0,0-2.79,10.51q.82,14.64,1.66,29.29a21.63,21.63,0,0,1-4.17,9.38c-2.8,3.53-5.62,4.54-6.15,8a15,15,0,0,0,.51,5.37c.5,2.19,1,2.59,1.52,4.8a23.56,23.56,0,0,1,.69,6,29.63,29.63,0,0,1-1.07,7.58c-.8,3-1.8,5.19-4.23,10-2.08,4.07-3.12,6.1-5.12,9.72a166.18,166.18,0,0,0-8.46,17.81,476.35,476.35,0,0,0,9.09-134.14C1736.35,1038.51,1734.36,1023.3,1731.88,1009.1Z" transform="translate(-525.57 -38.23)"/><path d="M1787.28,993" transform="translate(-525.57 -38.23)"/></g></svg>